<?xml version="1.0" encoding="UTF-8" standalone="no"?>
<svg
   width="135.47mm"
   height="135.47mm"
   version="1.1"
   viewBox="0 0 512 512"
   id="svg4409"
   sodipodi:docname="icon-vector.svg"
   inkscape:version="1.1.1 (3bf5ae0d25, 2021-09-20)"
   inkscape:export-filename="E:\Projects\react\r13b-page\public\favicon\chrome-icon.png"
   inkscape:export-xdpi="95.997643"
   inkscape:export-ydpi="95.997643"
   xmlns:inkscape="http://www.inkscape.org/namespaces/inkscape"
   xmlns:sodipodi="http://sodipodi.sourceforge.net/DTD/sodipodi-0.dtd"
   xmlns="http://www.w3.org/2000/svg"
   xmlns:svg="http://www.w3.org/2000/svg"
   xmlns:rdf="http://www.w3.org/1999/02/22-rdf-syntax-ns#"
   xmlns:cc="http://creativecommons.org/ns#"
   xmlns:dc="http://purl.org/dc/elements/1.1/">
  <defs
     id="defs4413" />
  <sodipodi:namedview
     id="namedview4411"
     pagecolor="#505050"
     bordercolor="#eeeeee"
     borderopacity="1"
     inkscape:pageshadow="0"
     inkscape:pageopacity="0"
     inkscape:pagecheckerboard="0"
     inkscape:document-units="mm"
     showgrid="false"
     inkscape:zoom="0.38530847"
     inkscape:cx="141.44511"
     inkscape:cy="351.66629"
     inkscape:window-width="1366"
     inkscape:window-height="715"
     inkscape:window-x="-8"
     inkscape:window-y="-8"
     inkscape:window-maximized="1"
     inkscape:current-layer="svg4409" />
  <metadata
     id="metadata4395">
    <rdf:RDF>
      <cc:Work
         rdf:about="">
        <dc:format>image/svg+xml</dc:format>
        <dc:type
           rdf:resource="http://purl.org/dc/dcmitype/StillImage" />
      </cc:Work>
    </rdf:RDF>
  </metadata>
  <g
     id="g4845"
     transform="translate(1889.3524,-280.28209)">
    <rect
       x="-1889.3516"
       y="280.2829"
       width="511.99841"
       height="511.99841"
       ry="94.17334"
       fill="#3d4058"
       id="rect4397"
       style="fill:#302840;fill-opacity:1;stroke-width:2.7826" />
    <g
       id="g3735"
       transform="matrix(3.1056407,0,0,3.1056407,-2806.741,-535.21569)">
      <path
         id="path16918-9"
         style="fill:#f4f1de;fill-opacity:1;stroke:#f4f1de;stroke-width:2.26647;stroke-linecap:square;stroke-linejoin:miter;stroke-miterlimit:4;stroke-dasharray:none;stroke-opacity:1"
         d="m 377.91401,282.49866 v 14.00559 h 6.83237 a 20.754815,20.754815 0 0 1 20.75481,20.7548 20.754815,20.754815 0 0 1 -20.75481,20.75482 h -6.83237 v 14.00558 h 6.83237 a 20.754815,20.754815 0 0 1 20.75481,20.75483 20.754815,20.754815 0 0 1 -13.56287,19.46644 v 14.53029 a 34.760428,34.760428 0 0 0 27.56847,-33.99673 34.760428,34.760428 0 0 0 -13.86974,-27.75762 34.760428,34.760428 0 0 0 13.86974,-27.75761 34.760428,34.760428 0 0 0 -34.76041,-34.76039 z" />
      <path
         id="path16920-2"
         style="fill:#e07a5f;fill-opacity:1;stroke:#e07a5f;stroke-width:2.26647;stroke-linecap:square;stroke-linejoin:miter;stroke-miterlimit:4;stroke-dasharray:none;stroke-opacity:1"
         d="m 336.1432,282.49866 v 14.29254 h 13.8428 v 110.74347 h 13.9921 c 0,-41.67867 0,-125.03601 0,-125.03601 z"
         sodipodi:nodetypes="ccccccc" />
    </g>
  </g>
</svg>
