<?xml version="1.0" encoding="UTF-8"?>
<svg width="135.47mm" height="135.47mm" version="1.1" viewBox="0 0 512 512" xmlns="http://www.w3.org/2000/svg" xmlns:cc="http://creativecommons.org/ns#" xmlns:dc="http://purl.org/dc/elements/1.1/" xmlns:rdf="http://www.w3.org/1999/02/22-rdf-syntax-ns#">
 <metadata>
  <rdf:RDF>
   <cc:Work rdf:about="">
    <dc:format>image/svg+xml</dc:format>
    <dc:type rdf:resource="http://purl.org/dc/dcmitype/StillImage"/>
   </cc:Work>
  </rdf:RDF>
 </metadata>
 <g transform="translate(19.544 516.48)">
  <g transform="matrix(2.7826 0 0 2.7826 175.38 482.19)">
   <rect x="-70.052" y="-358.9" width="184" height="184" ry="23.918" fill="#3d4058"/>
   <g transform="matrix(2.3505 0 0 2.3372 -33.335 354.54)" fill="#f4f1de">
    <path d="m2.0686-231.6v-56.394l-12.68 3.4988v-12.246l12.763-3.4067h11.772v68.548z"/>
    <path d="m35.553-300.21c-2.5334 0-5.1768 0.25115-7.9305 0.75344-2.7536 0.47275-5.5486 1.1671-8.3848 2.083v11.878c2.8362-1.1819 5.5761-2.083 8.2196-2.7035s5.1218-0.93072 7.4348-0.93072c3.029 0 5.3696 0.69435 7.0218 2.083 1.6797 1.3592 2.5196 3.2649 2.5196 5.7173 0 2.3342-0.83986 4.1513-2.5196 5.4514-1.6522 1.2705-3.9928 1.9058-7.0218 1.9058h-15.672v11.523h15.672c3.5246 0 6.2508 0.93072 8.1783 2.7922 1.9275 1.8319 2.8913 4.4468 2.8913 7.8446 0 2.7774-0.96378 4.9934-2.8913 6.648-1.9276 1.6251-4.5435 2.4376-7.8479 2.4376-2.4367 0-4.7627-0.25889-7.0347-0.64449v11.271c2.3235 0.32608 4.6632 0.542 7.0347 0.542 7.2971 0 12.859-1.6842 16.687-5.0525 3.8276-3.3683 5.7413-8.2583 5.7413-14.67 0-4.7866-1.1565-8.6424-3.4696-11.568-2.313-2.9547-5.6725-4.8457-10.078-5.673 3.8826-0.76821 6.8703-2.3933 8.9631-4.8752 2.0928-2.5115 3.1391-5.732 3.1391-9.6618 0-5.348-1.8174-9.5436-5.4522-12.587-3.6348-3.0433-8.7015-4.565-15.2-4.565z"/>
   </g>
  </g>
 </g>
</svg>
