<?xml version="1.0" encoding="UTF-8"?>
<svg width="645.35" height="274.77" version="1.1" viewBox="0 0 645.35 274.77" xmlns="http://www.w3.org/2000/svg">
 <g transform="matrix(4.0023 0 0 4.0023 1267 1181.3)">
  <path d="m-288.73-258.93c1.2116 0.27537 2.258 0.9179 3.1392 1.9276 0.9087 0.97908 2.5609 2.6444 3.3044 5.7828l4.9841 24.646h-13.383l-0.91263-16.647c-0.22029-0.48954 0.0806-2.0369-0.27733-2.8936-0.47055-6.7793-2.3424-7.5377-8.6268-7.5377h-3.8826v27.078h-12.185v-68.521h17.596c7.9305 0 13.617 1.5604 17.059 4.6813 3.4696 3.1208 5.2044 8.1999 5.2044 15.237 0 4.7119-1.0326 8.46-3.0978 11.244-2.0652 2.7843-5.0392 4.4518-8.9218 5.0025zm-15.654-24.783v18.679h5.7413c3.3319 0 5.7138-0.71902 7.1457-2.1571 1.4594-1.4686 2.1891-3.8705 2.1891-7.2055s-0.71594-5.7216-2.1478-7.1596c-1.4319-1.438-3.8276-2.1571-7.187-2.1571z" fill="#e07a5f"/>
  <path d="m-258.55-226.55v-56.394l-12.68 3.4988v-12.246l12.763-3.4067h11.772v68.548z" fill="#f4f1de"/>
  <path d="m-225.07-295.16c-2.5334 0-5.1768 0.25115-7.9305 0.75344-2.7536 0.47275-5.5486 1.1671-8.3848 2.083v11.878c2.8362-1.1819 5.5761-2.083 8.2196-2.7035s5.1218-0.93072 7.4348-0.93072c3.029 0 5.3696 0.69435 7.0218 2.083 1.6797 1.3592 2.5196 3.2649 2.5196 5.7173 0 2.3342-0.83986 4.1513-2.5196 5.4514-1.6522 1.2705-3.9928 1.9058-7.0218 1.9058h-15.672v11.523h15.672c3.5246 0 6.2508 0.93072 8.1783 2.7922 1.9275 1.8319 2.8913 4.4468 2.8913 7.8446 0 2.7774-0.96378 4.9934-2.8913 6.648-1.9276 1.6251-4.5435 2.4376-7.8479 2.4376-2.4367 0-4.7627-0.25889-7.0347-0.64449v11.271c2.3235 0.32608 4.6632 0.542 7.0347 0.542 7.2971 0 12.859-1.6842 16.687-5.0525 3.8276-3.3683 5.7413-8.2583 5.7413-14.67 0-4.7866-1.1565-8.6424-3.4696-11.568-2.313-2.9547-5.6725-4.8457-10.078-5.673 3.8826-0.76821 6.8703-2.3933 8.9631-4.8752 2.0928-2.5115 3.1391-5.732 3.1391-9.6618 0-5.348-1.8174-9.5436-5.4522-12.587-3.6348-3.0433-8.7015-4.565-15.2-4.565z" fill="#f4f1de"/>
  <path d="m-186.26-257.74v20.245h8.0957c3.8826 0 6.595-0.73285 8.137-2.1985 1.5696-1.4657 2.3544-4.0154 2.3544-7.6491 0-3.6948-0.81232-6.3513-2.437-7.9697-1.6246-1.6184-4.3094-2.4276-8.0544-2.4276zm0-26.657v15.894h8.0957c3.0841 0 5.2732-0.6107 6.5674-1.8321 1.3217-1.2214 1.9826-3.2367 1.9826-6.046s-0.67465-4.8398-2.0239-6.0918c-1.3217-1.2825-3.4971-1.9237-6.5261-1.9237zm-11.772-10.764h19.867c6.8566 0 12.006 1.4504 15.448 4.3513 3.4696 2.8703 5.2044 7.1758 5.2044 12.916 0 4.3971-1.0188 7.8323-3.0565 10.306s-5.0254 3.9085-8.9631 4.3055c4.7087 0.5191 8.2471 2.2749 10.615 5.2673 2.3957 2.9924 3.5935 7.1758 3.5935 12.55 0 6.5956-1.7899 11.374-5.3696 14.336s-9.4037 4.4429-17.472 4.4429h-19.867z" fill="#e07a5f"/>
 </g>
</svg>
