<?xml version="1.0" encoding="UTF-8" standalone="no"?>
<svg
   width="545.13086"
   height="274.50269"
   version="1.1"
   viewBox="0 0 545.13088 274.5027"
   id="svg3944"
   xmlns="http://www.w3.org/2000/svg"
   xmlns:svg="http://www.w3.org/2000/svg"
   xmlns:rdf="http://www.w3.org/1999/02/22-rdf-syntax-ns#"
   xmlns:cc="http://creativecommons.org/ns#"
   xmlns:dc="http://purl.org/dc/elements/1.1/">
  <title
     id="title4383">R13B logo</title>
  <defs
     id="defs3948" />
  <g
     id="g4363"
     transform="matrix(0.64653565,0,0,0.64653565,-285.92237,-356.96605)">
    <path
       id="path16914"
       style="fill:#e07a5f;fill-opacity:1;stroke:#e07a5f;stroke-width:7.559;stroke-linecap:square;stroke-linejoin:miter;stroke-miterlimit:4;stroke-dasharray:none;stroke-opacity:1"
       d="m 446.0171,555.90075 v 417.01563 h 46.6719 l 0.039,-185.15235 h 69.2207 c 38.2295,10e-6 69.2207,30.99117 69.2207,69.22071 -0.01,29.04483 -18.1443,54.99677 -45.4179,64.98437 v 48.4375 c 53.6701,-11.2593 92.11,-58.58344 92.1289,-113.42187 -0.03,-36.41338 -17.1662,-70.697 -46.2735,-92.57618 29.1073,-21.87918 46.2437,-56.1628 46.2735,-92.57617 -10e-5,-64.02728 -51.9044,-115.93162 -115.9317,-115.93164 z m 46.7109,46.71094 h 69.2207 c 38.2295,1e-5 69.2207,30.99117 69.2207,69.2207 0,38.22953 -30.9912,69.22069 -69.2207,69.2207 H 492.728 c 0,0 -0.3143,-136.76525 0,-138.4414 z" />
    <path
       id="path16918"
       style="fill:#f4f1de;fill-opacity:1;stroke:#f4f1de;stroke-width:7.55906;stroke-linecap:square;stroke-linejoin:miter;stroke-miterlimit:4;stroke-dasharray:none;stroke-opacity:1"
       d="m 864.3589,555.90075 v 46.71094 h 22.7871 a 69.220721,69.220721 0 0 1 69.2207,69.2207 69.220721,69.220721 0 0 1 -69.2207,69.2207 h -22.7871 v 46.71094 h 22.7871 a 69.220721,69.220721 0 0 1 69.2207,69.22071 69.220721,69.220721 0 0 1 -45.2344,64.92382 v 48.46094 a 115.93174,115.93174 0 0 0 91.9454,-113.38476 115.93174,115.93174 0 0 0 -46.2579,-92.57618 115.93174,115.93174 0 0 0 46.2579,-92.57617 A 115.93174,115.93174 0 0 0 887.146,555.90075 Z" />
    <path
       id="path16920"
       style="fill:#e07a5f;fill-opacity:1;stroke:#e07a5f;stroke-width:7.55906;stroke-linecap:square;stroke-linejoin:miter;stroke-miterlimit:4;stroke-dasharray:none;stroke-opacity:1"
       d="m 725.0464,555.90075 v 47.66797 h 46.168 v 369.34766 h 46.666 c 0,-139.00521 0,-417.01563 0,-417.01563 z" />
    <path
       id="path16926"
       style="fill:#f4f1de;fill-opacity:1;stroke:#f4f1de;stroke-width:7.55906;stroke-linecap:square;stroke-linejoin:miter;stroke-miterlimit:4;stroke-dasharray:none;stroke-opacity:1"
       d="m 1049.7515,555.90075 v 417.01563 h 115.9316 c 64.0273,-2e-5 115.9316,-51.90436 115.9317,-115.93164 -0.03,-36.41338 -17.1662,-70.697 -46.2735,-92.57618 29.1073,-21.87918 46.2437,-56.1628 46.2735,-92.57617 -10e-5,-64.02728 -51.9044,-115.93162 -115.9317,-115.93164 z m 46.7109,46.71094 h 69.2207 c 38.2295,1e-5 69.2207,30.99117 69.2207,69.2207 0,38.22953 -30.9912,69.22069 -69.2207,69.2207 h -69.2207 z m 0,185.15234 h 69.2207 c 38.2295,10e-6 69.2207,30.99117 69.2207,69.22071 0,38.22953 -30.9912,69.22069 -69.2207,69.2207 h -69.2207 z" />
  </g>
  <metadata
     id="metadata4381">
    <rdf:RDF>
      <cc:Work
         rdf:about="">
        <dc:title>R13B logo</dc:title>
      </cc:Work>
    </rdf:RDF>
  </metadata>
</svg>
